Coordinates
version=1
nRows=11
nColumns=46
inDegrees=yes

Units are S.I. units (second, meters, Newtons, ...)
Angles are in degrees.

endheader
time	pelvis_tilt	pelvis_list	pelvis_rotation	pelvis_tx	pelvis_ty	pelvis_tz	bb_angle	bb_tx	bb_ty	bb_tz	hip_flexion_r	hip_adduction_r	hip_rotation_r	knee_angle_r	knee_angle_r_beta	ankle_angle_r	subtalar_angle_r	mtp_angle_r	crank_angle_r	hip_flexion_l	hip_adduction_l	hip_rotation_l	knee_angle_l	knee_angle_l_beta	ankle_angle_l	subtalar_angle_l	mtp_angle_l	crank_angle_l	lumbar_extension	lumbar_bending	lumbar_rotation	arm_flex_r	arm_add_r	arm_rot_r	elbow_flex_r	pro_sup_r	wrist_flex_r	wrist_dev_r	arm_flex_l	arm_add_l	arm_rot_l	elbow_flex_l	pro_sup_l	wrist_flex_l	wrist_dev_l
      7.50500000	    -15.02995466	      4.07298423	      1.33468552	      0.12631937	      1.13762978	     -0.26818461	      0.00000000	      0.50000000	      0.00000000	      0.25000000	     53.91564855	    -11.87234235	     -1.99523464	     74.20453910	      1.29511353	     -3.09531884	     -5.91209082	      0.00000000	      0.00000000	     77.24084035	      0.86877300	      2.89264080	     78.47621449	      1.36966833	     13.62024740	     -8.85626093	      0.00000000	      0.00000000	    -60.20772656	      0.27894765	     -2.96206879	     73.45407191	    -18.87121528	     23.03463038	     76.01144535	     47.68822465	      0.00000000	      0.00000000	     80.00938994	    -26.04478263	     34.31589195	     67.47293105	     51.72480787	      0.00000000	      0.00000000
      7.51000000	    -14.44892065	      4.05357579	      1.42048085	      0.12649481	      1.13679678	     -0.26853961	      0.00000000	      0.50000000	      0.00000000	      0.25000000	     54.64054887	    -12.07516631	     -1.59105275	     76.93973444	      1.34285169	     -2.71846564	     -5.64728295	      0.00000000	      0.00000000	     75.22801519	      1.05323895	      2.86253641	     76.11685676	      1.32848977	     13.61592043	     -9.12053615	      0.00000000	      0.00000000	    -60.55133116	      0.41040507	     -2.84120932	     73.27468357	    -19.10632203	     23.29518811	     76.10526509	     47.72933040	      0.00000000	      0.00000000	     80.06284365	    -25.67600049	     34.11988733	     67.07601964	     51.63356682	      0.00000000	      0.00000000
      7.51500000	    -14.04650767	      3.64184175	      1.31660803	      0.12698339	      1.13551185	     -0.26838943	      0.00000000	      0.50000000	      0.00000000	      0.25000000	     55.39956185	    -11.70709024	     -1.39376067	     79.48009706	      1.38718938	     -2.31320880	     -5.93292566	      0.00000000	      0.00000000	     73.54283413	      0.74149860	      3.06420042	     74.05715184	      1.29254113	     13.73595400	     -8.95859910	      0.00000000	      0.00000000	    -60.62045843	      0.67072775	     -2.38453173	     73.07221101	    -19.05140208	     23.44074774	     76.02810134	     47.73212644	      0.00000000	      0.00000000	     79.75297224	    -25.66387907	     34.14999104	     66.97958845	     51.62560279	      0.00000000	      0.00000000
      7.52000000	    -13.76669152	      3.50567337	      1.52762584	      0.12767637	      1.13398366	     -0.26880304	      0.00000000	      0.50000000	      0.00000000	      0.25000000	     56.31492224	    -11.90946279	     -1.24415956	     82.07083941	      1.43240637	     -1.81783738	     -5.89784688	      0.00000000	      0.00000000	     71.94415873	      0.85751326	      3.15210603	     71.95482676	      1.25584864	     13.72121920	     -8.60187073	      0.00000000	      0.00000000	    -60.60669369	      0.93991710	     -2.34748892	     72.77746032	    -19.12452834	     23.61699511	     75.92245615	     47.73401836	      0.00000000	      0.00000000	     79.55102431	    -25.47962253	     34.11490912	     66.85145133	     51.60259699	      0.00000000	      0.00000000
      7.52500000	    -13.27743688	      3.23674878	      1.26819669	      0.12810243	      1.13289961	     -0.26847879	      0.00000000	      0.50000000	      0.00000000	      0.25000000	     57.00948699	    -11.53326460	     -0.93198893	     84.47061625	      1.47429037	     -1.21510339	     -5.95115809	      0.00000000	      0.00000000	     70.15934554	      0.38400436	      3.15028325	     69.95540775	      1.22095219	     13.50724708	     -8.23786717	      0.00000000	      0.00000000	    -60.83083868	      0.95838517	     -2.00652120	     72.75430030	    -19.04776653	     23.78458203	     75.81695368	     47.73134253	      0.00000000	      0.00000000	     79.37754154	    -25.40921832	     34.04635528	     66.68115887	     51.56937691	      0.00000000	      0.00000000
      7.53000000	    -13.02571147	      2.70112934	      1.28250965	      0.12820471	      1.13100085	     -0.26862151	      0.00000000	      0.50000000	      0.00000000	      0.25000000	     57.93160511	    -11.19903741	     -1.00229109	     86.87392028	      1.51623594	     -0.81737416	     -6.13931332	      0.00000000	      0.00000000	     68.78336919	      0.05381928	      3.55165022	     68.12351993	      1.18897972	     13.09492917	     -7.79579155	      0.00000000	      0.00000000	    -60.77573270	      1.38217832	     -1.55402401	     72.67602084	    -18.93111464	     23.87785528	     75.76006276	     47.73116580	      0.00000000	      0.00000000	     79.29014958	    -25.46552736	     34.01981256	     66.63132380	     51.55997815	      0.00000000	      0.00000000
      7.53500000	    -12.46531772	      2.83795828	      1.43764124	      0.12844872	      1.13049191	     -0.26840619	      0.00000000	      0.50000000	      0.00000000	      0.25000000	     58.53064120	    -11.49115271	     -0.71554285	     89.20875178	      1.55698644	      0.20173555	     -6.09541709	      0.00000000	      0.00000000	     66.78223760	      0.06651313	      3.25364822	     65.87538559	      1.14974237	     12.71014423	     -6.93949557	      0.00000000	      0.00000000	    -61.13087052	      1.35237640	     -1.81766424	     72.81814866	    -18.88701965	     23.94079849	     75.43063107	     47.67266718	      0.00000000	      0.00000000	     79.28554595	    -25.19392320	     33.94251333	     66.32679002	     51.48476758	      0.00000000	      0.00000000
      7.54000000	    -12.21898500	      2.44719515	      1.50441187	      0.12838075	      1.12928368	     -0.26798858	      0.00000000	      0.50000000	      0.00000000	      0.25000000	     59.41570658	    -11.23242168	     -0.78021500	     91.40647549	      1.59534395	      0.92137800	     -6.37597103	      0.00000000	      0.00000000	     65.29463009	     -0.30068274	      3.43000399	     63.85297649	      1.11444468	     12.03288139	     -6.19751909	      0.00000000	      0.00000000	    -61.16091748	      1.65387874	     -1.54612742	     72.92986318	    -18.73266170	     23.93311886	     75.29510041	     47.64021824	      0.00000000	      0.00000000	     79.19084736	    -25.18202291	     33.89680954	     66.16210135	     51.43699244	      0.00000000	      0.00000000
      7.54500000	    -11.66806811	      2.44448635	      1.68949243	      0.12831396	      1.12906117	     -0.26829545	      0.00000000	      0.50000000	      0.00000000	      0.25000000	     60.02282411	    -11.50016454	     -0.63176670	     93.57166866	      1.63313370	      1.76843185	     -6.25097491	      0.00000000	      0.00000000	     63.29671828	     -0.26418235	      3.36482153	     61.62064643	      1.07548317	     11.39244553	     -5.46101887	      0.00000000	      0.00000000	    -61.54152622	      1.81116448	     -1.72944117	     73.28731843	    -18.48819952	     23.88834311	     74.65985552	     47.51820820	      0.00000000	      0.00000000	     79.46334957	    -24.96172890	     33.87115639	     65.51026421	     51.31243673	      0.00000000	      0.00000000
      7.55000000	    -11.54950958	      2.22801460	      1.79327626	      0.12834492	      1.12817674	     -0.26827450	      0.00000000	      0.50000000	      0.00000000	      0.25000000	     61.06503161	    -11.46482575	     -0.60009862	     95.63867101	      1.66920970	      2.54881655	     -6.42354358	      0.00000000	      0.00000000	     61.78147135	     -0.44107157	      3.47133987	     59.43887675	      1.03740410	     10.56058452	     -4.80650816	      0.00000000	      0.00000000	    -61.47855132	      2.03105757	     -1.62048761	     73.50776935	    -18.30760251	     23.81334163	     74.27736623	     47.43942847	      0.00000000	      0.00000000	     79.43276580	    -24.85302078	     33.89604781	     65.10478626	     51.24140842	      0.00000000	      0.00000000
      7.55500000	    -11.54526426	      1.82017713	      1.79057996	      0.12835075	      1.12727587	     -0.26830639	      0.00000000	      0.50000000	      0.00000000	      0.25000000	     62.19137020	    -11.21906648	     -0.72494708	     97.58208508	      1.70312868	      3.40395231	     -6.72828372	      0.00000000	      0.00000000	     60.40233297	     -0.83634857	      3.66468899	     57.32568888	      1.00052202	      9.83192303	     -4.17020969	      0.00000000	      0.00000000	    -61.32036772	      2.32664157	     -1.27141989	     73.69826405	    -18.23776041	     23.74826674	     74.14073930	     47.40445699	      0.00000000	      0.00000000	     79.29294585	    -24.86900641	     33.85582399	     64.95831486	     51.20714852	      0.00000000	      0.00000000
